<svg xmlns="http://www.w3.org/2000/svg" width="128" height="15" viewBox="0 0 128 15">
  <defs>
    <style>
      .cls-1 {
        fill-rule: evenodd;
      }
    </style>
  </defs>
  <path id="THISISARTON" class="cls-1" d="M4.51,2.988V15H7.548V2.988H12V0.449H0.048V2.988H4.51ZM16.385,15V8.984h6.25V15H25.7V0.449H22.635V6.455h-6.25V0.449H13.319V15h3.066ZM27.577,0.449V15h3.066V0.449H27.577ZM40.956,14.673a4.269,4.269,0,0,0,1.929-1.514,4.018,4.018,0,0,0,.669-2.319,3.794,3.794,0,0,0-.322-1.606,3.618,3.618,0,0,0-.913-1.216,5.474,5.474,0,0,0-1.392-.874,9.417,9.417,0,0,0-1.748-.571l-1.3-.322a7.185,7.185,0,0,1-1.148-.366A2.3,2.3,0,0,1,35.9,5.317a1.229,1.229,0,0,1-.312-0.854,1.4,1.4,0,0,1,.273-0.85,1.783,1.783,0,0,1,.8-0.581,3.394,3.394,0,0,1,1.265-.21,2.894,2.894,0,0,1,1.753.479A1.773,1.773,0,0,1,40.4,4.629h2.959a4.029,4.029,0,0,0-.7-2.275A4.531,4.531,0,0,0,40.775.811,6.69,6.69,0,0,0,37.948.254a6.938,6.938,0,0,0-2.837.552,4.724,4.724,0,0,0-1.963,1.543,3.834,3.834,0,0,0-.718,2.31,3.3,3.3,0,0,0,1.064,2.573,6.5,6.5,0,0,0,2.9,1.4l1.592,0.391a8.362,8.362,0,0,1,1.343.42,2.263,2.263,0,0,1,.84.566,1.208,1.208,0,0,1,.288.82,1.485,1.485,0,0,1-.317.942,2.043,2.043,0,0,1-.9.63,3.767,3.767,0,0,1-1.362.225,3.924,3.924,0,0,1-1.436-.244,2.228,2.228,0,0,1-1-.737,2.281,2.281,0,0,1-.43-1.216H32.05a4.78,4.78,0,0,0,.767,2.637,4.433,4.433,0,0,0,2.031,1.6,8.006,8.006,0,0,0,3.062.537A7.819,7.819,0,0,0,40.956,14.673Zm4-14.224V15h3.066V0.449H44.96ZM58.339,14.673a4.27,4.27,0,0,0,1.929-1.514,4.019,4.019,0,0,0,.669-2.319,3.794,3.794,0,0,0-.322-1.606A3.618,3.618,0,0,0,59.7,8.018a5.474,5.474,0,0,0-1.392-.874,9.417,9.417,0,0,0-1.748-.571l-1.3-.322a7.188,7.188,0,0,1-1.148-.366,2.3,2.3,0,0,1-.835-0.566,1.229,1.229,0,0,1-.312-0.854,1.4,1.4,0,0,1,.274-0.85,1.783,1.783,0,0,1,.8-0.581,3.394,3.394,0,0,1,1.265-.21,2.894,2.894,0,0,1,1.753.479,1.773,1.773,0,0,1,.727,1.328h2.959a4.029,4.029,0,0,0-.7-2.275A4.531,4.531,0,0,0,58.158.811,6.69,6.69,0,0,0,55.331.254a6.938,6.938,0,0,0-2.837.552,4.724,4.724,0,0,0-1.963,1.543,3.834,3.834,0,0,0-.718,2.31,3.3,3.3,0,0,0,1.064,2.573,6.5,6.5,0,0,0,2.9,1.4L55.37,9.023a8.362,8.362,0,0,1,1.343.42,2.263,2.263,0,0,1,.84.566,1.208,1.208,0,0,1,.288.82,1.485,1.485,0,0,1-.317.942,2.043,2.043,0,0,1-.9.63,3.766,3.766,0,0,1-1.362.225,3.924,3.924,0,0,1-1.436-.244,2.228,2.228,0,0,1-1-.737,2.281,2.281,0,0,1-.43-1.216H49.432a4.78,4.78,0,0,0,.767,2.637,4.433,4.433,0,0,0,2.031,1.6,8.006,8.006,0,0,0,3.062.537A7.819,7.819,0,0,0,58.339,14.673Zm9.815-10.9H68.27L71.923,15H75.2L70.194,0.449H66.229L61.21,15H64.5Zm-3.848,7.91h7.783v-2.4H64.305v2.4ZM79.354,15V2.969h2.08a3.663,3.663,0,0,1,1.475.259,1.833,1.833,0,0,1,.874.752,2.4,2.4,0,0,1,.288,1.226,2.3,2.3,0,0,1-.288,1.2,1.782,1.782,0,0,1-.869.723,3.817,3.817,0,0,1-1.47.244H78.1V9.844h3.838a6.759,6.759,0,0,0,2.866-.552A4.023,4.023,0,0,0,86.62,7.7a4.763,4.763,0,0,0,.625-2.49,4.926,4.926,0,0,0-.62-2.515,4.176,4.176,0,0,0-1.787-1.655A6.223,6.223,0,0,0,82.02.449H76.288V15h3.066Zm8.408,0L84.139,8.379h-3.32L84.364,15h3.4ZM92.675,2.988V15h3.037V2.988h4.453V0.449H88.212V2.988h4.463Zm18.194,11.333a6.209,6.209,0,0,0,2.436-2.544,8.464,8.464,0,0,0,.894-4.043,8.517,8.517,0,0,0-.894-4.058,6.2,6.2,0,0,0-2.436-2.549,7.351,7.351,0,0,0-6.953,0,6.235,6.235,0,0,0-2.442,2.549,8.482,8.482,0,0,0-.9,4.058,8.407,8.407,0,0,0,.9,4.033,6.274,6.274,0,0,0,2.442,2.549A7.333,7.333,0,0,0,110.868,14.321Zm-5.42-2.388a3.57,3.57,0,0,1-1.294-1.607,6.461,6.461,0,0,1-.464-2.593,6.526,6.526,0,0,1,.464-2.607,3.569,3.569,0,0,1,1.294-1.611,3.743,3.743,0,0,1,3.9,0,3.514,3.514,0,0,1,1.285,1.611,6.659,6.659,0,0,1,.454,2.607,6.593,6.593,0,0,1-.454,2.593,3.515,3.515,0,0,1-1.285,1.607A3.743,3.743,0,0,1,105.448,11.934ZM124.921,0.449V9.6h-0.127l-6.28-9.15h-2.695V15h3.066V5.85h0.127L125.331,15h2.656V0.449h-3.066Z"/>
</svg>
