<svg xmlns="http://www.w3.org/2000/svg" width="160" height="18.75" viewBox="0 0 128 15">
  <defs>
    <style>
      .cls-1 {
        fill-rule: evenodd;
      }
    </style>
  </defs>
  <path id="ARTON" class="cls-1" d="M17.071,13.667h3.258L15.757,1.031H12.193L7.621,13.667h3.222L11.6,11.435h4.716ZM12.409,9.059l1.548-4.626,1.566,4.626H12.409Zm31.824,4.608-2.916-5a3.827,3.827,0,0,0,2.1-1.4,3.761,3.761,0,0,0,.711-2.25A4,4,0,0,0,43.6,2.984a3.6,3.6,0,0,0-1.575-1.431,5.689,5.689,0,0,0-2.547-.522H34.315V13.667h3.078V8.9h0.738l2.628,4.77h3.474Zm-6.84-10.08H39.3A1.747,1.747,0,0,1,40.57,4a1.515,1.515,0,0,1,.423,1.134A1.563,1.563,0,0,1,40.57,6.3a1.746,1.746,0,0,1-1.269.414H37.393V3.587ZM57.967,1.031V3.5h3.348v10.17h3.078V3.5h3.348V1.031H57.967Zm29.9,12.762a6.544,6.544,0,0,0,3.258-.828,6.143,6.143,0,0,0,2.34-2.313,6.517,6.517,0,0,0,.864-3.339,6.524,6.524,0,0,0-.855-3.33,6.082,6.082,0,0,0-2.34-2.3,6.859,6.859,0,0,0-6.534,0,6.21,6.21,0,0,0-2.358,2.3,6.415,6.415,0,0,0-.873,3.33,6.462,6.462,0,0,0,.873,3.339A6.188,6.188,0,0,0,84.6,12.965a6.594,6.594,0,0,0,3.267.828h0Zm0-2.808a3.135,3.135,0,0,1-2.439-1,3.819,3.819,0,0,1-.909-2.673,3.812,3.812,0,0,1,.909-2.682,3.15,3.15,0,0,1,2.439-.99,3.115,3.115,0,0,1,2.421,1A3.82,3.82,0,0,1,91.2,7.313a3.827,3.827,0,0,1-.909,2.664,3.1,3.1,0,0,1-2.421,1.008h0Zm32.076-9.954h-3.078v7.83l-5.148-7.83h-3.078V13.667h3.078V5.873l5.148,7.794h3.078V1.031Z"/>
</svg>
