<svg xmlns="http://www.w3.org/2000/svg" width="230" height="15" viewBox="0 0 230 15">
  <defs>
    <style>
      .cls-1 {
        fill-rule: evenodd;
      }
    </style>
  </defs>
  <path id="THIS_IS_ARTON" data-name="THIS IS ARTON" class="cls-1" d="M6.765,1.031V3.5h3.348v10.17h3.078V3.5h3.348V1.031H6.765Zm26.748,0v4.95H28.725V1.031H25.647V13.667h3.078v-5.2h4.788v5.2h3.078V1.031H33.513Zm12.852,0V13.667h3.078V1.031H46.365ZM63.807,13.793a5.452,5.452,0,0,0,2.466-.522,3.846,3.846,0,0,0,1.593-1.4A3.639,3.639,0,0,0,68.415,9.9a2.941,2.941,0,0,0-.558-1.854,3.79,3.79,0,0,0-1.323-1.1,16.7,16.7,0,0,0-1.989-.792,9.416,9.416,0,0,1-1.8-.738,1.059,1.059,0,0,1-.576-0.954,1.071,1.071,0,0,1,.342-0.855,1.323,1.323,0,0,1,.9-0.3,1.586,1.586,0,0,1,1.062.351,1.3,1.3,0,0,1,.45.963h3.33A3.577,3.577,0,0,0,66.885,1.85a5.313,5.313,0,0,0-3.366-1,5.251,5.251,0,0,0-3.33,1,3.311,3.311,0,0,0-1.278,2.763,3.109,3.109,0,0,0,.558,1.926A3.687,3.687,0,0,0,60.8,7.655a14.19,14.19,0,0,0,2,.756,12.522,12.522,0,0,1,1.3.45,2.547,2.547,0,0,1,.774.5,1.035,1.035,0,0,1,.315.774,1.054,1.054,0,0,1-.4.873,1.689,1.689,0,0,1-1.08.315,1.561,1.561,0,0,1-1.08-.369,1.587,1.587,0,0,1-.486-1.071H58.875a3.637,3.637,0,0,0,.693,2.124,4.045,4.045,0,0,0,1.755,1.332,6.5,6.5,0,0,0,2.484.45h0ZM89.241,1.031V13.667h3.078V1.031H89.241Zm17.442,12.762a5.451,5.451,0,0,0,2.466-.522,3.844,3.844,0,0,0,1.593-1.4A3.638,3.638,0,0,0,111.29,9.9a2.939,2.939,0,0,0-.558-1.854,3.788,3.788,0,0,0-1.323-1.1,16.677,16.677,0,0,0-1.989-.792,9.424,9.424,0,0,1-1.8-.738,1.06,1.06,0,0,1-.576-0.954,1.071,1.071,0,0,1,.342-0.855,1.324,1.324,0,0,1,.9-0.3,1.585,1.585,0,0,1,1.062.351,1.3,1.3,0,0,1,.45.963h3.33A3.576,3.576,0,0,0,109.76,1.85a5.312,5.312,0,0,0-3.366-1,5.251,5.251,0,0,0-3.33,1,3.312,3.312,0,0,0-1.278,2.763,3.109,3.109,0,0,0,.558,1.926,3.69,3.69,0,0,0,1.332,1.116,14.209,14.209,0,0,0,2,.756,12.514,12.514,0,0,1,1.3.45,2.546,2.546,0,0,1,.774.5,1.034,1.034,0,0,1,.315.774,1.053,1.053,0,0,1-.4.873,1.688,1.688,0,0,1-1.08.315,1.562,1.562,0,0,1-1.08-.369,1.589,1.589,0,0,1-.486-1.071H101.75a3.639,3.639,0,0,0,.693,2.124,4.047,4.047,0,0,0,1.755,1.332,6.5,6.5,0,0,0,2.484.45h0Zm34.056-.126H144L139.424,1.031H135.86l-4.572,12.636h3.222l0.756-2.232h4.716Zm-4.662-4.608,1.548-4.626,1.566,4.626h-3.114Zm26.784,4.608-2.916-5a3.826,3.826,0,0,0,2.1-1.4,3.761,3.761,0,0,0,.711-2.25,3.994,3.994,0,0,0-.522-2.025,3.6,3.6,0,0,0-1.575-1.431,5.688,5.688,0,0,0-2.547-.522h-5.166V13.667h3.078V8.9h0.738l2.628,4.77h3.474Zm-6.84-10.08h1.908A1.747,1.747,0,0,1,159.2,4a1.514,1.514,0,0,1,.423,1.134A1.563,1.563,0,0,1,159.2,6.3a1.746,1.746,0,0,1-1.269.414H156.02V3.587Zm15.534-2.556V3.5H174.9v10.17h3.078V3.5h3.348V1.031h-9.774Zm24.858,12.762a6.544,6.544,0,0,0,3.258-.828,6.142,6.142,0,0,0,2.34-2.313,6.517,6.517,0,0,0,.864-3.339,6.522,6.522,0,0,0-.855-3.33,6.081,6.081,0,0,0-2.34-2.3,6.859,6.859,0,0,0-6.534,0,6.211,6.211,0,0,0-2.358,2.3,6.417,6.417,0,0,0-.873,3.33,6.464,6.464,0,0,0,.873,3.339,6.188,6.188,0,0,0,2.358,2.313,6.594,6.594,0,0,0,3.267.828h0Zm0-2.808a3.136,3.136,0,0,1-2.439-1,3.819,3.819,0,0,1-.909-2.673,3.813,3.813,0,0,1,.909-2.682,3.151,3.151,0,0,1,2.439-.99,3.114,3.114,0,0,1,2.421,1,3.819,3.819,0,0,1,.909,2.673,3.826,3.826,0,0,1-.909,2.664,3.1,3.1,0,0,1-2.421,1.008h0Zm27.036-9.954H220.37v7.83l-5.148-7.83h-3.078V13.667h3.078V5.873l5.148,7.794h3.078V1.031Z"/>
</svg>
