<svg xmlns="http://www.w3.org/2000/svg" width="128" height="15" viewBox="0 0 128 15">
  <defs>
    <style>
      .cls-1 {
        fill-rule: evenodd;
      }
    </style>
  </defs>
  <path id="ARTON" class="cls-1" d="M11.053,13.667h3.726L10.171,0.977H6.1L1.477,13.667H5.185L5.869,11.6h4.5ZM6.769,8.9l1.35-4.1L9.487,8.9H6.769Zm34.83,4.77-2.862-4.95a3.841,3.841,0,0,0,2.079-1.4,3.778,3.778,0,0,0,.711-2.277,4.054,4.054,0,0,0-.54-2.079,3.721,3.721,0,0,0-1.6-1.458A5.755,5.755,0,0,0,36.793.977H31.231v12.69h3.528V8.987h0.378l2.52,4.68H41.6Zm-6.84-9.738h1.746a1.5,1.5,0,0,1,1.071.351,1.267,1.267,0,0,1,.369.963,1.3,1.3,0,0,1-.36.99,1.515,1.515,0,0,1-1.08.342H34.759V3.929ZM57.727,0.977V3.785h3.348v9.882H64.6V3.785h3.384V0.977H57.727ZM90.685,13.793a6.589,6.589,0,0,0,3.276-.837,6.173,6.173,0,0,0,2.358-2.322,6.551,6.551,0,0,0,.864-3.357,6.552,6.552,0,0,0-.864-3.357A6.125,6.125,0,0,0,93.97,1.607a6.913,6.913,0,0,0-6.561,0A6.17,6.17,0,0,0,85.042,3.92a6.5,6.5,0,0,0-.873,3.357,6.5,6.5,0,0,0,.873,3.357,6.235,6.235,0,0,0,2.367,2.322,6.589,6.589,0,0,0,3.276.837h0Zm0-3.276a2.713,2.713,0,0,1-2.142-.873,3.439,3.439,0,0,1-.774-2.367,3.467,3.467,0,0,1,.774-2.385,3.053,3.053,0,0,1,4.275,0A3.442,3.442,0,0,1,93.6,7.277a3.421,3.421,0,0,1-.783,2.358,2.707,2.707,0,0,1-2.133.882h0Zm35.136-9.54h-3.528V8.159l-4.7-7.182h-3.528v12.69H117.6V6.575l4.7,7.092h3.528V0.977Z"/>
</svg>
